<svg width="244" height="90" viewBox="0 0 244 90" fill="none" xmlns="http://www.w3.org/2000/svg">
<path d="M100.717 57.2273H88V41H99.9823V44.1259H92.04V47.091H99.4544V50.1709H92.04V54.0324H100.717V57.2273V57.2273ZM113.549 57.2273H110.014V50.4467C110.014 49.6423 109.991 49.0447 109.876 48.7229C109.715 48.3092 109.279 47.7575 108.269 47.7575C108.108 47.7575 107.511 47.7575 107.075 48.1253C106.479 48.585 106.41 49.3205 106.41 50.7455V57.2273H102.875V45.2522H106.456V46.2865C106.57 46.1716 106.708 45.9877 107.006 45.7579C107.443 45.4361 108.407 44.9304 109.83 44.9304C110.105 44.9304 111.115 44.9534 111.965 45.4131C113.434 46.1946 113.549 47.5507 113.549 49.0217V57.2273V57.2273ZM127.459 56.7446C127.459 57.0664 127.436 57.3882 127.413 57.7099C127.344 58.3075 127.161 59.6177 125.76 60.5371C124.222 61.5254 121.858 61.5254 121.514 61.5254C119.31 61.5254 117.841 60.8129 117.152 60.2383C116.877 60.0084 116.716 59.8016 116.624 59.6637C115.959 58.6983 116.028 57.595 116.028 57.2273H119.677C119.723 57.7789 119.746 58.1237 120.137 58.5374C120.412 58.8592 120.917 59.181 121.858 59.181C121.973 59.181 122.914 59.181 123.442 58.6983C123.97 58.2386 123.97 57.595 123.97 56.9514L123.947 55.6413C123.809 55.7333 123.534 55.9401 123.144 56.147C122.799 56.3079 121.904 56.6756 120.802 56.6756C118.851 56.6756 115.844 55.5494 115.844 50.8835C115.844 47.6656 117.543 45.9877 118.759 45.4361C119.127 45.2752 119.907 45.0223 120.94 45.0223C122.202 45.0223 123.052 45.482 123.465 45.7579C123.74 45.9417 123.901 46.1026 124.131 46.3325V45.2292H127.459V56.7446V56.7446ZM123.947 50.8605C123.947 50.2629 123.878 49.1826 123.557 48.608C123.327 48.2172 122.73 47.6196 121.583 47.6656C121.445 47.6656 120.917 47.7116 120.504 47.9874C119.402 48.7689 119.494 50.7915 119.494 50.8835C119.494 51.1823 119.517 51.4811 119.54 51.7569C119.609 52.3545 119.815 53.9864 121.743 53.9864C122.501 53.9864 122.914 53.7336 123.144 53.5267C123.855 52.8831 123.947 51.7339 123.947 50.8605ZM134.093 43.7352H130.581V41H134.093V43.7352ZM134.093 57.2273H130.581V45.2292H134.093V57.2273ZM147.981 57.2273H144.446V50.4467C144.446 49.6423 144.423 49.0447 144.308 48.7229C144.147 48.3092 143.711 47.7575 142.701 47.7575C142.54 47.7575 141.943 47.7575 141.507 48.1253C140.911 48.585 140.842 49.3205 140.842 50.7455V57.2273H137.307V45.2522H140.888V46.2865C141.002 46.1716 141.14 45.9877 141.438 45.7579C141.875 45.4361 142.839 44.9304 144.262 44.9304C144.537 44.9304 145.547 44.9534 146.397 45.4131C147.866 46.1946 147.981 47.5507 147.981 49.0217V57.2273V57.2273ZM162.465 51.9637H153.903C153.903 52.0787 153.88 52.3545 153.949 52.6763C154.224 54.0783 155.211 54.9518 156.634 54.9518C156.841 54.9518 157.3 54.9288 157.782 54.7449C158.976 54.3312 159.504 53.113 159.665 52.8142L162.327 54.1933C161.845 54.9058 161.593 55.2276 161.317 55.5494C159.55 57.5031 157.254 57.664 156.359 57.664C155.992 57.664 155.142 57.641 154.201 57.3422C151.539 56.5147 150.299 54.1703 150.299 51.4581C150.299 50.7226 150.345 48.493 151.837 46.7692C152.572 45.9417 153.834 44.8614 156.451 44.8614C157.254 44.8614 159.642 44.9534 161.134 47.045C162.488 48.9068 162.442 51.3891 162.465 51.9637V51.9637ZM158.815 49.7572C158.769 49.3665 158.7 48.1483 157.507 47.6196C157.025 47.3898 156.634 47.3898 156.428 47.3898C155.028 47.3898 154.385 48.4241 154.201 48.8378C154.109 49.0447 154.018 49.2975 153.926 49.7572H158.815V49.7572ZM185.695 48.9757C185.695 52.0327 184.708 53.8485 183.836 54.8598C183.308 55.4574 182.114 56.5147 180.14 56.9744C179.245 57.1813 178.464 57.2273 177.546 57.2273H171.188V41H176.353C176.858 41 177.34 41 177.822 41.023C178.51 41.069 181.219 41.1379 183.193 42.7698C183.491 42.9997 183.974 43.4364 184.479 44.2409C185.052 45.1373 185.695 46.5853 185.695 48.9757V48.9757ZM181.632 49.1136C181.632 47.8725 181.494 46.7462 180.714 45.7579C180.484 45.482 180.002 44.9304 179.13 44.6546C178.373 44.4017 177.684 44.4247 176.903 44.4247H175.274V53.9634H176.513C177.707 53.9634 179.084 53.8945 180.14 53.113C180.966 52.4924 181.632 51.3202 181.632 49.1136V49.1136ZM199.996 51.2282C199.996 53.9404 198.71 55.5034 197.884 56.1929C197.195 56.7676 195.795 57.595 193.546 57.595C192.926 57.595 190.493 57.4801 188.84 55.8712C188.128 55.1816 187.118 53.7106 187.118 51.2052C187.118 50.5157 187.164 48.562 188.519 46.9301C189.345 45.9417 190.998 44.7006 194.028 44.8844C195.428 44.9534 196.667 45.2752 197.792 46.1716C199.284 47.3898 199.996 49.2975 199.996 51.2282V51.2282ZM196.415 51.3432C196.415 49.5274 195.841 48.608 195.152 48.1253C194.831 47.8954 194.349 47.6656 193.408 47.6656C193.247 47.6656 192.582 47.7116 192.077 48.0104C191.434 48.3781 190.676 49.4124 190.676 51.1823C190.676 52.3545 191.067 53.2279 191.296 53.5957C191.572 54.0094 192.26 54.7679 193.592 54.7679C195.543 54.7679 196.415 53.136 196.415 51.3432V51.3432ZM212.759 54.4001C212.506 54.7909 212.231 55.2046 211.932 55.5494C210.348 57.4111 208.305 57.618 207.433 57.618C206.905 57.618 205.849 57.549 204.633 56.9514C202.383 55.8482 201.488 53.7106 201.488 51.3202C201.488 50.7685 201.511 49.6193 202.085 48.2862C203.439 45.1373 206.4 44.8844 207.502 44.8844C208.443 44.8844 210.555 45.0683 212.162 47.091C212.3 47.2748 212.391 47.4128 212.621 47.7805L210.004 49.2745C209.981 49.2056 209.798 48.8378 209.614 48.585C209.407 48.3321 208.742 47.5966 207.663 47.5966C207.41 47.5966 206.905 47.6196 206.377 48.0104C205.161 48.9298 205.115 50.9754 205.115 51.2052C205.115 52.2396 205.459 53.5727 206.263 54.2392C206.492 54.4231 206.997 54.8139 207.778 54.8139C208.925 54.7909 209.545 54.0324 209.752 53.7336C209.866 53.5497 209.958 53.4118 210.096 53.021L212.759 54.4001ZM220.931 47.6886H218.589V53.067C218.589 53.5497 218.566 53.8255 218.681 54.0324C218.888 54.4231 219.438 54.4231 219.507 54.4231C219.921 54.4231 220.334 54.4001 220.747 54.4001V57.1353C220.517 57.1813 219.691 57.3192 218.888 57.3192C218.635 57.3192 218.383 57.3192 218.153 57.2962C217.832 57.2732 216.776 57.2962 215.972 56.5607C215.054 55.7562 215.1 54.538 215.1 53.4348V47.6656H213.356V45.505H215.1V41.7585H218.589V45.528H220.931V47.6886V47.6886ZM234.841 51.2282C234.841 53.9404 233.556 55.5034 232.729 56.1929C232.041 56.7676 230.64 57.595 228.391 57.595C227.771 57.595 225.338 57.4801 223.685 55.8712C222.974 55.1816 221.964 53.7106 221.964 51.2052C221.964 50.5157 222.009 48.562 223.364 46.9301C224.19 45.9417 225.843 44.7006 228.873 44.8844C230.273 44.9534 231.513 45.2752 232.637 46.1716C234.129 47.3898 234.841 49.2975 234.841 51.2282V51.2282ZM231.26 51.3432C231.26 49.5274 230.686 48.608 229.998 48.1253C229.676 47.8954 229.194 47.6656 228.253 47.6656C228.092 47.6656 227.427 47.7116 226.922 48.0104C226.279 48.3781 225.521 49.4124 225.521 51.1823C225.521 52.3545 225.912 53.2279 226.141 53.5957C226.417 54.0094 227.105 54.7679 228.437 54.7679C230.388 54.7679 231.26 53.136 231.26 51.3432V51.3432ZM244 48.2172L242.829 48.4011C242.715 48.4241 242.164 48.493 241.727 48.6539C240.786 48.9757 240.626 49.5733 240.626 50.4697V57.2273H237.114V45.2292H240.534V46.4704C240.832 46.2175 241.154 45.8958 241.934 45.574C242.898 45.1832 243.564 45.1373 244 45.0913V48.2172V48.2172Z" fill="white"/>
<path d="M48.1751 25.9538V47.7908H50.9458V25.9538H50.7671L51.929 20.1366L51.214 11.903H47.8176L47.1025 20.1366L48.3538 25.9538H48.1751Z" fill="white"/>
<path d="M52.644 55.9349C51.7502 54.4134 51.6608 52.534 52.1971 51.1021C52.1077 51.1021 52.0183 51.1021 51.929 51.1021C52.5546 51.1021 53.0909 50.5651 53.0909 49.9387C53.0909 49.3122 52.5546 48.7752 51.929 48.7752H47.1025C46.4769 48.7752 45.9406 49.3122 45.9406 49.9387C45.9406 50.5651 46.4769 51.1021 47.1025 51.1021C47.0131 51.1021 46.9238 51.1021 46.8344 51.1021C47.3707 52.534 47.2813 54.3239 46.3875 55.9349L46.03 56.9193C45.6725 57.8143 45.4937 58.7987 45.4937 59.7832V73.4761C45.4937 75.7135 47.3707 77.5929 49.6051 77.5929C51.8396 77.5929 53.7165 75.7135 53.7165 73.4761V59.6937C53.7165 58.7092 53.5378 57.8143 53.1803 56.9193L52.644 55.9349Z" fill="white"/>
<path d="M23.2384 52.534L25.9198 49.4017C26.3667 48.8647 26.4561 47.9698 26.5455 47.1643C26.6348 46.1798 26.3667 44.9269 26.6348 44.0319C27.3499 42.063 29.6737 41.3471 31.7294 42.3315C32.3551 42.6 33.0701 42.421 33.6064 41.884L37.0027 37.7672C37.6284 37.0513 37.2709 36.3353 36.9134 35.5298C34.6789 31.592 35.5727 25.4168 40.9354 23.9849C42.6336 23.5374 44.7787 23.1794 45.315 21.2105C45.9406 18.7941 41.6504 16.3777 39.7735 16.0197C37.4496 15.4828 34.8577 15.6618 32.9807 16.0197C30.3887 16.5567 28.0649 17.8097 26.1879 19.6891C25.2048 20.6735 23.6853 23.6269 22.1659 23.7164C21.719 23.7164 21.2721 23.8954 20.9146 24.3429L17.5182 28.4597C17.0713 29.0861 17.0713 29.8916 17.4288 30.4286C18.3226 32.845 18.6801 33.5609 17.1607 35.4403C16.4457 36.2458 14.9262 36.4248 13.8537 36.6933C13.1387 36.8723 12.6024 37.4093 12.1555 37.9462L9.47414 41.0786C8.84849 41.7945 8.75911 42.6 9.47414 43.2265L20.5571 52.534C21.1827 52.9815 22.7022 53.25 23.2384 52.534Z" fill="white"/>
<path d="M46.2981 55.9349L39.9522 50.1177L33.3382 56.7404C29.4949 55.2189 24.9366 56.0244 21.8084 59.1568C18.6801 62.2891 17.8757 66.8534 19.3951 70.7017L27.1711 62.9156L33.2488 69.0013L25.4729 76.7874C29.3162 78.3089 33.8745 77.5034 37.0027 74.371C40.131 71.2387 40.9354 66.6744 39.4159 62.8261L46.2981 55.9349Z" fill="white"/>
<path d="M77.3125 69.0013L54.521 51.4601C54.3422 51.8181 54.0741 52.0866 53.7166 52.355C53.5378 53.25 53.7166 54.2345 54.1635 55.0399L54.2528 55.1294L54.6997 56.2929C55.1466 57.4563 55.3254 58.6198 55.3254 59.7832V61.9311L71.1454 76.3399C73.1117 78.1298 76.24 77.9509 78.0276 75.8924C79.8151 73.834 79.4576 70.7017 77.3125 69.0013Z" fill="white"/>
<path d="M46.2981 46.9853V45.1059L38.4328 39.1097L34.947 43.2265L45.3149 52.713C45.3149 52.6236 45.3149 52.4446 45.3149 52.3551C44.5999 51.8181 44.0636 50.9231 44.0636 49.9387C44.0636 48.5067 45.0468 47.3433 46.2981 46.9853Z" fill="white"/>
<path d="M54.2528 47.9698L65.7827 36.4248C69.626 37.9462 74.1843 37.1408 77.3125 34.0084C80.4408 30.8761 81.2452 26.3118 79.7257 22.4635L71.9498 30.2496L65.8721 24.1639L73.648 16.3777C69.8047 14.8563 65.2464 15.6618 62.1182 18.7941C58.9899 21.9265 58.1855 26.4908 59.7049 30.3391L52.7334 37.3198V46.9853C53.359 47.1643 53.8059 47.5223 54.2528 47.9698Z" fill="white"/>
</svg>
